HIERARCHY
ROOT Hips
{
	OFFSET 0.00000 0.00000 0.00000
	CHANNELS 6 Xposition Yposition Zposition Zrotation Yrotation Xrotation 
	JOINT LHipJoint
	{
		OFFSET 0 0 0
		CHANNELS 3 Zrotation Yrotation Xrotation
		JOINT LeftUpLeg
		{
			OFFSET 1.81638 -1.86202 0.89635
			CHANNELS 3 Zrotation Yrotation Xrotation
			JOINT LeftLeg
			{
				OFFSET 2.63464 -7.23861 0.00000
				CHANNELS 3 Zrotation Yrotation Xrotation
				JOINT LeftFoot
				{
					OFFSET 2.45871 -6.75336 0.00000
					CHANNELS 3 Zrotation Yrotation Xrotation
					JOINT LeftToeBase
					{
						OFFSET 0.34235 -0.94059 2.20020
						CHANNELS 3 Zrotation Yrotation Xrotation
						End Site
						{
							OFFSET 0.00000 -0.00000 1.18611
						}
					}
				}
			}
		}
	}
	JOINT RHipJoint
	{
		OFFSET 0 0 0
		CHANNELS 3 Zrotation Yrotation Xrotation
		JOINT RightUpLeg
		{
			OFFSET -1.84405 -1.86203 0.89635
			CHANNELS 3 Zrotation Yrotation Xrotation
			JOINT RightLeg
			{
				OFFSET -2.71067 -7.44751 0.00000
				CHANNELS 3 Zrotation Yrotation Xrotation
				JOINT RightFoot
				{
					OFFSET -2.47159 -6.79060 0.00000
					CHANNELS 3 Zrotation Yrotation Xrotation
					JOINT RightToeBase
					{
						OFFSET -0.26223 -0.72048 2.36007
						CHANNELS 3 Zrotation Yrotation Xrotation
						End Site
						{
							OFFSET -0.00000 -0.00000 1.23343
						}
					}
				}
			}
		}
	}
	JOINT LowerBack
	{
		OFFSET 0 0 0
		CHANNELS 3 Zrotation Yrotation Xrotation
		JOINT Spine
		{
			OFFSET 0.02089 1.99248 -0.22512
			CHANNELS 3 Zrotation Yrotation Xrotation
			JOINT Spine1
			{
				OFFSET 0.01476 2.01356 -0.03079
				CHANNELS 3 Zrotation Yrotation Xrotation
				JOINT Neck
				{
					OFFSET 0 0 0
					CHANNELS 3 Zrotation Yrotation Xrotation
					JOINT Neck1
					{
						OFFSET 0.04846 1.65098 0.06663
						CHANNELS 3 Zrotation Yrotation Xrotation
						JOINT Head
						{
							OFFSET -0.06061 1.60634 -0.07565
							CHANNELS 3 Zrotation Yrotation Xrotation
							End Site
							{
								OFFSET -0.02954 1.73562 -0.03642
							}
						}
					}
				}
				JOINT LeftShoulder
				{
					OFFSET 0 0 0
					CHANNELS 3 Zrotation Yrotation Xrotation
					JOINT LeftArm
					{
						OFFSET 3.45234 1.47051 -0.06993
						CHANNELS 3 Zrotation Yrotation Xrotation
						JOINT LeftForeArm
						{
							OFFSET 5.49313 -0.00000 0.00000
							CHANNELS 3 Zrotation Yrotation Xrotation
							JOINT LeftHand
							{
								OFFSET 3.29037 -0.00000 0.00000
								CHANNELS 3 Zrotation Yrotation Xrotation
								JOINT LeftFingerBase
								{
									OFFSET 0 0 0
									CHANNELS 3 Zrotation Yrotation Xrotation
									JOINT LeftHandIndex1
									{
										OFFSET 0.72966 -0.00000 0.00000
										CHANNELS 3 Zrotation Yrotation Xrotation
										End Site
										{
											OFFSET 0.58827 -0.00000 0.00000
										}
									}
								}
								JOINT LThumb
								{
									OFFSET 0 0 0
									CHANNELS 3 Zrotation Yrotation Xrotation
									End Site
									{
										OFFSET 0.59725 -0.00000 0.59725
									}
								}
							}
						}
					}
				}
				JOINT RightShoulder
				{
					OFFSET 0 0 0
					CHANNELS 3 Zrotation Yrotation Xrotation
					JOINT RightArm
					{
						OFFSET -3.41935 1.44327 0.20453
						CHANNELS 3 Zrotation Yrotation Xrotation
						JOINT RightForeArm
						{
							OFFSET -5.23684 -0.00000 0.00000
							CHANNELS 3 Zrotation Yrotation Xrotation
							JOINT RightHand
							{
								OFFSET -3.38251 -0.00000 0.00000
								CHANNELS 3 Zrotation Yrotation Xrotation
								JOINT RightFingerBase
								{
									OFFSET 0 0 0
									CHANNELS 3 Zrotation Yrotation Xrotation
									JOINT RightHandIndex1
									{
										OFFSET -0.69145 -0.00000 0.00000
										CHANNELS 3 Zrotation Yrotation Xrotation
										End Site
										{
											OFFSET -0.55747 -0.00000 0.00000
										}
									}
								}
								JOINT RThumb
								{
									OFFSET 0 0 0
									CHANNELS 3 Zrotation Yrotation Xrotation
									End Site
									{
										OFFSET -0.56598 -0.00000 0.56598
									}
								}
							}
						}
					}
				}
			}
		}
	}
}
MOTION
Frames: 13
Frame Time: 0.0212766
0.00 0.00 0.00 -378.4440 -79.7327 376.7470 0.0000 0.0000 0.0000 -9.0565 4.2987 -18.7692 4.2329 12.4640 37.3938 0.9676 -12.3922 -18.3734 0.5778 -4.8675 -13.5311 0.0000 0.0000 0.0000 25.8551 -0.5947 -2.9036 -1.8931 -8.6397 24.6745 -1.0028 -11.6061 -26.3945 -0.3424 -3.7599 10.4022 4.9978 2.9145 14.7804 -2.6549 4.4150 1.2710 -6.5310 1.9633 -6.3252 12.8761 17.3766 1.1765 -13.9920 24.8402 12.8114 -4.3184 11.9950 7.1121 0.0000 0.0000 0.0000 -68.1576 11.9157 40.1612 84.0759 -59.8670 -54.8718 -0.0000 0.0000 -41.7233 -6.8128 24.3600 -2.8211 -7.1250 0.0000 -0.0000 -35.6885 50.6815 -5.6179 0.0000 0.0000 0.0000 80.5423 -18.1222 23.2301 -34.8515 44.7058 -14.7088 0.0000 0.0000 2.9528 -9.5176 -18.2769 3.0098 7.1250 -0.0000 -0.0000 17.7888 -47.6709 -1.2085
0.00 0.00 0.00 -400.2610 -76.3838 398.3920 0.0000 0.0000 0.0000 -8.7757 -0.3564 -16.4781 4.0152 12.1806 36.3740 1.3863 -1.4522 -21.8386 0.0001 0.0629 0.1729 0.0000 0.0000 0.0000 25.9452 -9.9999 -12.8429 -4.0933 -12.2835 36.7424 -0.7897 0.5092 -16.6296 -0.0803 1.8284 -5.0315 2.4437 2.9768 16.3585 -1.1666 4.1080 3.2019 -3.4554 1.9037 -5.4643 11.2016 11.0674 -5.3711 -8.5608 15.2847 21.0352 -3.1425 7.2211 9.0029 -0.0000 0.0000 0.0000 -70.0771 12.3656 44.3291 79.8313 -59.6057 -51.2053 -0.0000 0.0000 -6.4562 -4.0725 10.6198 -0.7517 -7.1250 0.0000 -0.0000 -26.5921 39.1141 4.2122 -0.0000 0.0000 0.0000 83.5885 -13.7782 7.4057 -26.9985 38.1778 -9.4982 0.0000 0.0000 13.2735 -9.9946 -18.1481 3.1419 7.1250 -0.0000 -0.0000 17.3023 -47.6121 -1.1478
0.00 0.00 0.00 -407.4920 -76.4965 405.6040 0.0000 0.0000 0.0000 -8.5732 0.8510 -16.4404 3.7891 11.8744 35.2890 1.3293 -1.4780 -21.3659 0.0048 0.4454 1.2238 0.0000 0.0000 0.0000 22.9053 -14.8914 -23.8244 -7.8462 -16.0049 52.0066 0.1413 7.2192 -0.3607 -0.0615 1.6001 -4.4018 1.7295 3.0252 18.1338 -1.1304 4.0069 3.8532 -3.0791 1.8368 -5.7824 10.3648 9.6412 -6.6848 -7.9477 13.1781 21.7461 -3.0236 6.1680 9.1459 -0.0000 0.0000 0.0000 -72.1800 11.6374 41.4197 71.1076 -58.6074 -43.7152 -0.0000 0.0000 -2.2881 -1.8201 9.5104 -0.3008 -7.1250 0.0000 -0.0000 -24.4167 38.2988 4.3429 -0.0000 0.0000 0.0000 82.8466 -12.5871 6.9960 -27.6437 38.7862 -9.8997 0.0000 0.0000 14.2074 -9.2395 -17.7376 2.8372 7.1250 -0.0000 -0.0000 17.8343 -47.1172 -0.9612
0.00 0.00 0.00 -409.1580 -77.4079 407.2060 0.0000 0.0000 0.0000 -9.8790 2.6446 -15.4790 3.2414 11.0760 32.5365 1.1791 -1.8943 -19.9862 0.0157 0.8100 2.2263 0.0000 0.0000 0.0000 18.8910 -17.8830 -33.0992 -12.6581 -18.6552 68.0601 0.2589 9.3002 6.0086 -0.0001 -0.0459 0.1262 -0.2597 3.1800 19.3742 -1.3607 3.7543 4.3227 -2.2010 1.7140 -6.0690 9.8330 8.7071 -6.9892 -7.7519 11.8697 21.8631 -3.0323 5.5168 9.0559 -0.0000 0.0000 0.0000 -73.6620 11.0000 38.5902 65.0897 -57.5203 -38.6066 -0.0000 0.0000 -4.0645 -1.3586 11.2500 -0.2651 -7.1250 0.0000 -0.0000 -24.6239 39.9219 3.3174 -0.0000 0.0000 0.0000 81.9363 -12.3286 7.5252 -29.8169 40.7360 -11.2900 0.0000 0.0000 13.7728 -9.8958 -17.4875 3.0008 7.1250 -0.0000 -0.0000 17.1434 -46.9633 -0.8549
0.00 0.00 0.00 -410.0340 -77.4278 408.0610 0.0000 0.0000 0.0000 -10.4751 3.4139 -14.1122 2.6560 10.1161 29.3536 0.9930 -1.6033 -18.3637 0.0232 0.9834 2.7030 0.0000 0.0000 0.0000 15.5709 -21.0952 -41.6292 -18.4875 -19.9451 85.5738 0.2636 9.0584 3.3575 -0.0086 -0.5981 1.6435 -1.7422 3.2649 20.0799 -1.4425 3.5040 4.8059 -1.4117 1.5906 -6.0132 9.2907 7.8435 -7.2905 -7.3840 10.6361 22.0523 -2.9647 4.9159 8.9981 -0.0000 -0.0000 0.0000 -74.1934 9.6568 36.3404 59.3398 -56.1314 -33.7923 -0.0000 0.0000 -4.6647 -2.6816 12.9451 -0.6011 -7.1250 0.0000 -0.0000 -26.3215 41.3309 2.5851 -0.0000 -0.0000 0.0000 81.4062 -12.5709 7.5460 -33.1053 43.4108 -13.4943 0.0000 0.0000 13.6672 -13.1159 -17.4396 3.9945 7.1250 -0.0000 -0.0000 14.1756 -47.3446 -0.8362
0.00 0.00 0.00 -413.9460 -75.7340 411.7310 0.0000 0.0000 0.0000 -8.8767 3.0938 -12.6150 2.2217 9.3134 26.7808 0.8429 -0.8678 -17.0785 0.0255 1.0312 2.8346 0.0000 0.0000 0.0000 14.0176 -24.6698 -48.5859 -24.0154 -19.6090 101.8142 0.1469 7.3280 -0.2867 -0.0625 -1.6135 4.4387 -1.4771 3.1026 20.6369 -1.0630 3.3272 5.3521 -1.1191 1.4858 -5.7244 8.8300 6.9889 -7.8562 -6.7724 9.3460 22.4357 -2.8204 4.3127 9.0574 0.0000 -0.0000 0.0000 -74.0753 8.0693 34.2849 54.0192 -54.4932 -29.4159 -0.0000 0.0000 -2.7140 -3.8286 12.9706 -0.8605 -7.1250 0.0000 -0.0000 -27.2694 41.2408 2.7621 0.0000 -0.0000 0.0000 81.1593 -13.0952 6.8603 -36.9593 46.1616 -16.2107 0.0000 0.0000 14.2181 -18.4620 -17.3986 5.7009 7.1250 -0.0000 -0.0000 9.1713 -48.0462 -0.6947
0.00 0.00 0.00 -419.5590 -72.6801 416.5330 0.0000 0.0000 0.0000 -5.5850 2.0903 -10.1842 1.7846 8.4023 23.9429 0.6882 0.5641 -15.8881 0.0261 1.0426 2.8661 0.0000 0.0000 0.0000 12.0983 -29.8590 -54.3747 -29.3988 -17.7343 118.5205 0.1265 8.2208 -2.6384 -0.1112 -2.1505 5.9216 -0.1602 2.7286 21.7130 -0.2743 3.0989 6.0791 -0.9861 1.3399 -5.4704 8.4334 6.1049 -8.2819 -5.8797 7.9439 22.5570 -2.6040 3.7006 8.9990 -0.0000 0.0000 0.0000 -73.8855 6.8800 31.3536 49.4580 -52.7745 -25.7419 -0.0000 0.0000 -0.9311 -2.9826 13.5325 -0.6985 -7.1250 0.0000 -0.0000 -26.7966 41.8276 2.2807 -0.0000 0.0000 0.0000 80.5117 -13.5489 5.9798 -41.6129 48.9970 -19.6479 0.0000 0.0000 14.4313 -25.3393 -17.4086 8.0637 7.1250 -0.0000 -0.0000 2.5681 -49.0956 -0.2595
0.00 0.00 0.00 -423.2050 -68.8627 418.9650 0.0000 0.0000 0.0000 -1.9487 0.5503 -6.4292 1.2259 7.0223 19.7814 0.4706 2.8114 -14.2912 0.0232 0.9828 2.7014 0.0000 0.0000 0.0000 2.5337 -38.3490 -55.9274 -33.6630 -14.7471 133.6804 1.1097 19.0188 1.4128 -0.0082 -0.5861 1.6106 1.4138 1.9738 23.3844 0.6393 2.4428 6.9096 -0.7618 0.9750 -5.3972 7.7711 5.3070 -8.7718 -4.5213 6.5989 22.6033 -2.1729 3.1406 8.9268 0.0000 0.0000 0.0000 -73.6497 6.6376 27.5355 46.3435 -51.4099 -23.2842 -0.0000 0.0000 -1.2717 0.7828 14.2591 0.1928 -7.1250 0.0000 -0.0000 -23.9334 42.8720 1.3402 0.0000 0.0000 0.0000 78.3351 -13.7204 5.4686 -47.3841 51.8844 -24.1003 0.0000 0.0000 13.2584 -31.0214 -19.1756 11.1737 7.1250 -0.0000 -0.0000 -2.8462 -52.0451 0.4940
0.00 0.00 0.00 -440.0830 -65.5681 434.1820 0.0000 0.0000 0.0000 0.6049 -1.9912 1.4157 0.5185 4.6152 12.8143 -0.4855 13.9602 -12.3523 0.2561 3.2558 8.9918 0.0000 0.0000 0.0000 -15.7733 -0.1858 -53.3622 -20.5301 -19.9933 91.5499 -0.5829 -2.5805 -15.5887 -0.6151 -5.0195 13.9642 2.3996 2.6593 25.5688 2.3843 3.4696 8.2667 0.2464 1.3653 -5.0193 9.7892 4.1638 -7.8732 -5.5296 4.9573 19.6327 -3.0185 2.4605 7.7312 0.0000 0.0000 0.0000 -75.2224 9.0101 23.3276 39.6951 -47.8882 -18.2127 -0.0000 0.0000 -8.4420 5.2354 15.7554 1.4252 -7.1250 0.0000 -0.0000 -20.6609 44.7456 0.1357 0.0000 0.0000 0.0000 69.6785 -10.6632 -1.3236 -55.2438 54.9033 -30.4154 0.0000 0.0000 10.1954 -35.2732 -23.3089 15.6362 7.1250 -0.0000 -0.0000 -6.9833 -57.6660 2.1725
0.00 0.00 0.00 -444.3620 -66.5135 439.1960 0.0000 0.0000 0.0000 -0.5444 -1.5150 0.3678 0.6042 4.9757 13.8393 -0.5836 15.1552 -13.2313 0.2944 3.4890 9.6433 0.0000 0.0000 0.0000 -15.0543 4.4183 -52.1263 -14.5991 -19.2858 74.0261 -0.5324 -5.9459 -17.2320 -0.2744 -3.3697 9.3097 1.8808 2.8046 25.2490 2.0855 3.5047 8.1949 0.2159 1.3854 -4.9561 10.0049 4.3754 -7.7930 -5.8404 5.2770 19.3742 -3.1254 2.6004 7.6723 0.0000 0.0000 0.0000 -75.7813 9.6919 22.9658 38.2751 -47.0141 -17.1666 -0.0000 0.0000 -8.1976 5.6782 15.8018 1.5509 -7.1250 0.0000 -0.0000 -20.2897 44.8404 0.0835 0.0000 0.0000 0.0000 69.3814 -9.9010 -0.8331 -56.1897 55.2060 -31.1907 0.0000 0.0000 10.8214 -33.9606 -24.0192 15.3308 7.1250 -0.0000 -0.0000 -5.3292 -58.1487 1.7176
0.00 0.00 0.00 -449.9690 -67.5239 445.6700 0.0000 0.0000 0.0000 -1.7826 -0.7490 -1.0365 0.7347 5.4760 15.2712 -0.6476 16.1790 -14.5487 0.3169 3.6188 10.0066 0.0000 0.0000 0.0000 -13.2047 7.2179 -51.0949 -8.9727 -16.7901 55.9957 -0.3107 -8.2233 -16.5735 -0.0182 -0.8716 2.3956 1.3495 3.0115 24.7991 1.6740 3.6169 8.0691 0.0536 1.4466 -4.8802 10.1741 4.5376 -7.7012 -6.2868 5.5616 19.2176 -3.2747 2.7084 7.6449 -0.0000 -0.0000 0.0000 -76.1051 10.0837 22.9019 36.3672 -45.7641 -15.7850 -0.0000 0.0000 -8.2303 5.6654 15.9583 1.5623 -7.1250 0.0000 -0.0000 -20.3591 44.9858 0.0075 -0.0000 -0.0000 0.0000 69.6192 -9.5351 0.2311 -57.4837 55.6013 -32.2559 0.0000 0.0000 11.0826 -32.8762 -24.5671 15.0413 7.1250 -0.0000 -0.0000 -3.9459 -58.4965 1.3037
0.00 0.00 0.00 -456.5100 -68.3641 453.0790 0.0000 0.0000 0.0000 -3.0008 0.1696 -2.6447 0.9242 6.1246 17.1465 -0.6613 16.9920 -16.2668 0.3290 3.6866 10.1965 0.0000 0.0000 0.0000 -8.9277 7.2504 -51.1486 -4.8650 -13.2301 40.2360 -0.1562 -7.8723 -14.0219 -0.1029 2.0687 -5.6956 0.9027 3.2449 24.2595 1.2019 3.7895 7.8963 -0.2337 1.5404 -4.7994 10.2785 4.6635 -7.6041 -6.7619 5.8107 19.2363 -3.4287 2.7913 7.6713 -0.0000 0.0000 0.0000 -76.2126 10.2610 23.0324 34.3201 -44.3205 -14.3362 -0.0000 0.0000 -8.2569 5.2929 16.1213 1.4736 -7.1250 0.0000 -0.0000 -20.7485 45.0948 -0.0508 -0.0000 0.0000 0.0000 70.2019 -9.5406 1.7570 -58.6248 55.9322 -33.1993 0.0000 0.0000 11.3563 -31.6014 -24.7534 14.4458 7.1250 -0.0000 -0.0000 -2.4114 -58.3926 0.7902
0.00 0.00 0.00 -472.2990 -70.4447 469.9670 0.0000 0.0000 0.0000 -6.9418 2.2126 -6.4394 1.6376 8.0664 22.9160 -0.4535 17.9767 -21.0360 0.3421 3.7587 10.3988 0.0000 0.0000 0.0000 15.1931 -2.1412 -62.9228 -4.6709 -13.0033 39.3808 0.2066 8.2026 1.2151 -0.7542 5.5468 -15.4748 -0.5567 3.1625 24.1569 0.2669 3.2623 7.7698 -0.2681 1.2774 -4.9186 9.9362 5.0529 -7.6878 -7.9102 6.5947 19.4474 -3.6809 3.0263 7.8496 -0.0000 -0.0000 0.0000 -76.6704 10.4964 22.7398 31.0200 -41.7518 -12.0832 -0.0000 0.0000 -6.3210 2.5594 17.2807 0.7608 -7.1250 0.0000 -0.0000 -23.6163 45.8383 -0.5176 -0.0000 -0.0000 0.0000 71.3276 -9.5352 8.0933 -58.1176 55.7871 -32.7796 0.0000 0.0000 11.5492 -24.9111 -25.0350 11.1186 7.1250 -0.0000 -0.0000 5.2024 -57.1511 -1.5515
